<?xml version="1.0" encoding="UTF-8"?>
<svg width="24px" height="22px" viewBox="0 0 24 22" version="1.1" xmlns="http://www.w3.org/2000/svg" xmlns:xlink="http://www.w3.org/1999/xlink">
    <!-- Generator: Sketch 50.2 (55047) - http://www.bohemiancoding.com/sketch -->
    <title>download-icon copy</title>
    <desc>Created with Sketch.</desc>
    <defs></defs>
    <g id="Page-1" stroke="none" stroke-width="1" fill="none" fill-rule="evenodd">
        <g id="styleguide_identity_sp_section-expanded" transform="translate(-1299.000000, -3339.000000)" fill="#A3A1A1">
            <g id="download-icon" transform="translate(1299.000000, 3339.000000)">
                <path d="M22.885,10.685 C22.51,10.685 22.2099375,10.9850625 22.2099375,11.3600625 L22.2099375,17.4999375 C22.2099375,19.169875 20.850125,20.525125 19.1850625,20.525125 L4.375,20.525125 C2.7050625,20.525125 1.350125,19.165 1.350125,17.4999375 L1.350125,11.26 C1.350125,10.885 1.0500625,10.5849375 0.6750625,10.5849375 C0.3000625,10.5849375 0,10.885 0,11.26 L0,17.4999375 C0,19.915 1.9650625,21.8749375 4.375,21.8749375 L19.1850625,21.8749375 C21.600125,21.8749375 23.5600625,19.910125 23.5600625,17.4999375 L23.5600625,11.3600625 C23.5600625,10.9899375 23.26,10.685 22.885,10.685 Z" id="Fill-1"></path>
                <path d="M11.3049375,16.515125 C11.4350625,16.645 11.610125,16.7150625 11.78,16.7150625 C11.9499375,16.7150625 12.125,16.650125 12.254875,16.515125 L16.5449375,12.2250625 C16.8100625,11.9599375 16.8100625,11.535125 16.5449375,11.27 C16.28,11.0050625 15.855,11.0050625 15.5900625,11.27 L12.4550625,14.410125 L12.4550625,0.7150625 C12.4550625,0.3400625 12.155,0.04 11.78,0.04 C11.405,0.04 11.105,0.3400625 11.105,0.7150625 L11.105,14.410125 L7.9650625,11.27 C7.6999375,11.0050625 7.274875,11.0050625 7.01,11.27 C6.745125,11.535125 6.745125,11.9599375 7.01,12.2250625 L11.3049375,16.515125 Z" id="Fill-2"></path>
            </g>
        </g>
    </g>
</svg>